<svg width="380" height="319" viewBox="0 0 380 319" fill="none" xmlns="http://www.w3.org/2000/svg">
<path fill-rule="evenodd" clip-rule="evenodd" d="M238.503 282C316.473 282 379.68 218.872 379.68 141C379.68 63.1278 316.473 0 238.503 0C160.533 0 97.3256 63.1278 97.3256 141C97.3256 218.872 160.533 282 238.503 282ZM238.503 235C290.483 235 332.621 192.915 332.621 141C332.621 89.0854 290.483 47.0001 238.503 47.0001C186.523 47.0001 144.385 89.0854 144.385 141C144.385 192.915 186.523 235 238.503 235Z" fill="url(#paint0_linear_70_4)" fill-opacity="0.4"/>
<path fill-rule="evenodd" clip-rule="evenodd" d="M230.339 210.003C230.181 213.053 229.905 216.072 229.515 219.055L100.274 89.9766C103.261 89.5865 106.284 89.3108 109.338 89.154L230.339 210.003ZM89.623 91.8809C92.7129 91.1766 95.8501 90.5965 99.029 90.1461L229.345 220.299C228.894 223.474 228.313 226.607 227.608 229.693L89.623 91.8809ZM221.856 247.778C222.829 245.419 223.726 243.021 224.543 240.587L78.7152 94.9423C76.2777 95.7587 73.8766 96.6543 71.515 97.626L221.856 247.778ZM70.5167 98.0423C67.9353 99.1332 65.4019 100.315 62.9208 101.585L217.892 256.362C219.163 253.884 220.347 251.353 221.439 248.775L70.5167 98.0423ZM228.28 181.448C227.37 176.881 226.19 172.41 224.756 168.055L151.338 94.7292C146.978 93.2973 142.502 92.1185 137.928 91.2103L228.28 181.448ZM136.179 90.8771C132.006 90.1155 127.754 89.5786 123.437 89.2793L230.213 195.922C229.913 191.61 229.376 187.363 228.613 183.195L136.179 90.8771ZM230.493 204C230.493 205.558 230.462 207.108 230.4 208.651L110.691 89.0923C112.236 89.031 113.788 89 115.348 89C117.556 89 119.749 89.0621 121.927 89.1845L230.308 197.43C230.431 199.604 230.493 201.795 230.493 204ZM227.34 230.839C226.636 233.779 225.819 236.676 224.894 239.524L79.7793 94.5917C82.631 93.6676 85.5315 92.8516 88.4759 92.1486L227.34 230.839ZM214.165 144.935C218.124 151.528 221.441 158.55 224.028 165.914L153.482 95.4565C160.856 98.0405 167.886 101.353 174.487 105.307L214.165 144.935ZM61.9886 102.067C59.5711 103.332 57.2042 104.68 54.8916 106.108L213.363 264.381C214.793 262.071 216.143 259.707 217.409 257.293L61.9886 102.067ZM212.819 265.251L54.0204 106.651C52.0094 107.918 50.0405 109.244 48.116 110.629L208.837 271.148C210.223 269.226 211.551 267.259 212.819 265.251ZM208.241 271.966L47.2967 111.224C45.1622 112.788 43.0836 114.424 41.0646 116.129L203.33 278.19C205.036 276.174 206.674 274.098 208.241 271.966ZM0.402844 197.178C0.602358 193.772 0.95031 190.406 1.44033 187.086L132.284 317.765C128.96 318.254 125.589 318.602 122.178 318.801L0.402844 197.178ZM0.332002 198.521L120.834 318.872C119.016 318.957 117.187 319 115.348 319C113.891 319 112.439 318.973 110.995 318.919L0.284396 208.348C0.230699 206.905 0.203613 205.456 0.203613 204C0.203613 202.163 0.246728 200.337 0.332002 198.521ZM0.348797 209.826L109.515 318.855C105.305 318.645 101.155 318.21 97.0755 317.56L1.64545 222.25C0.995041 218.176 0.558858 214.031 0.348797 209.826ZM1.92946 223.947L95.3764 317.276C90.3423 316.397 85.4207 315.191 80.6342 313.682L5.52868 238.67C4.0171 233.89 2.80979 228.974 1.92946 223.947ZM6.21461 240.769C8.60168 247.839 11.6582 254.601 15.3088 260.98L58.2962 303.914C64.6836 307.56 71.4544 310.612 78.5332 312.997L6.21461 240.769ZM17.3897 264.472C26.7912 279.631 39.622 292.446 54.8001 301.836L17.3897 264.472ZM6.01594 167.825C5.18418 170.334 4.43657 172.881 3.77646 175.463L143.921 315.432C146.506 314.772 149.057 314.026 151.569 313.195L6.01594 167.825ZM142.789 315.714L3.49353 176.594C2.74867 179.637 2.12503 182.727 1.62804 185.86L133.511 317.577C136.648 317.081 139.742 316.458 142.789 315.714ZM6.37227 166.768C7.30594 164.041 8.33932 161.361 9.46806 158.731L160.674 309.747C158.041 310.874 155.357 311.907 152.627 312.839L6.37227 166.768ZM33.7912 122.82C32.1453 124.47 30.5492 126.169 29.0053 127.915L191.529 290.234C193.277 288.693 194.978 287.098 196.63 285.455L33.7912 122.82ZM190.774 290.894L28.3448 128.669C26.6147 130.66 24.952 132.711 23.3603 134.819L184.616 295.872C186.726 294.283 188.78 292.622 190.774 290.894ZM197.336 284.746L34.5006 122.115C36.3723 120.272 38.3068 118.492 40.3008 116.779L202.679 278.953C200.964 280.945 199.181 282.877 197.336 284.746ZM183.806 296.477L22.755 135.628C21.167 137.77 19.6517 139.968 18.2128 142.22L177.205 301.013C179.46 299.576 181.662 298.063 183.806 296.477ZM169.17 305.69C166.718 306.987 164.214 308.198 161.661 309.319L9.8965 157.745C11.0193 155.196 12.232 152.694 13.5308 150.246L169.17 305.69ZM170.092 305.197L14.0243 149.325C15.1739 147.205 16.3883 145.124 17.6648 143.087L176.338 301.561C174.298 302.836 172.215 304.048 170.092 305.197Z" fill="url(#paint1_linear_70_4)" fill-opacity="0.4"/>
<defs>
<linearGradient id="paint0_linear_70_4" x1="154.292" y1="30.921" x2="318.728" y2="256.841" gradientUnits="userSpaceOnUse">
<stop stop-color="#ED7B50"/>
<stop offset="0.541667" stop-color="#488AEA"/>
<stop offset="1" stop-color="#2C2C2C"/>
</linearGradient>
<linearGradient id="paint1_linear_70_4" x1="46.6654" y1="114.219" x2="180.78" y2="298.481" gradientUnits="userSpaceOnUse">
<stop stop-color="#ED7B50"/>
<stop offset="0.541667" stop-color="#488AEA"/>
<stop offset="1" stop-color="#2C2C2C"/>
</linearGradient>
</defs>
</svg>
